<svg width="48" height="49" viewBox="0 0 48 49" fill="none" xmlns="http://www.w3.org/2000/svg">
<circle cx="3.41003" cy="3.41003" r="3.41003" transform="matrix(0 1 1 0 0.507324 41.2998)" fill="#03181B" fill-opacity="0.07"/>
<circle cx="3.41003" cy="3.41003" r="3.41003" transform="matrix(0 1 1 0 0.285889 30.9751)" fill="#03181B" fill-opacity="0.07"/>
<circle cx="3.41003" cy="3.41003" r="3.41003" transform="matrix(0 1 1 0 0.191528 20.7456)" fill="#03181B" fill-opacity="0.07"/>
<circle cx="3.41003" cy="3.41003" r="3.41003" transform="matrix(0 1 1 0 0 10.2319)" fill="#03181B" fill-opacity="0.07"/>
<circle cx="3.41003" cy="3.41003" r="3.41003" transform="matrix(0 1 1 0 0.00012207 0)" fill="#03181B" fill-opacity="0.07"/>
<circle cx="3.41003" cy="3.41003" r="3.41003" transform="matrix(0 1 1 0 10.2314 0)" fill="#03181B" fill-opacity="0.07"/>
<circle cx="3.41003" cy="3.41003" r="3.41003" transform="matrix(0 1 1 0 10.2313 10.231)" fill="#03181B" fill-opacity="0.07"/>
<circle cx="3.41003" cy="3.41003" r="3.41003" transform="matrix(0 1 1 0 10.4227 20.7456)" fill="#03181B" fill-opacity="0.07"/>
<circle cx="3.41003" cy="3.41003" r="3.41003" transform="matrix(0 1 1 0 10.5173 30.9751)" fill="#03181B" fill-opacity="0.07"/>
<circle cx="3.41003" cy="3.41003" r="3.41003" transform="matrix(0 1 1 0 20.6541 20.7456)" fill="#03181B" fill-opacity="0.07"/>
<circle cx="3.41003" cy="3.41003" r="3.41003" transform="matrix(0 1 1 0 20.4628 10.231)" fill="#03181B" fill-opacity="0.07"/>
<circle cx="3.41003" cy="3.41003" r="3.41003" transform="matrix(0 1 1 0 20.4626 0)" fill="#03181B" fill-opacity="0.07"/>
<circle cx="3.41003" cy="3.41003" r="3.41003" transform="matrix(0 1 1 0 30.694 0)" fill="#03181B" fill-opacity="0.07"/>
<circle cx="3.41003" cy="3.41003" r="3.41003" transform="matrix(0 1 1 0 40.9254 0.000488281)" fill="#03181B" fill-opacity="0.07"/>
<circle cx="3.41003" cy="3.41003" r="3.41003" transform="matrix(0 1 1 0 30.6941 10.231)" fill="#03181B" fill-opacity="0.07"/>
</svg>
