<svg width="23" height="23" viewBox="0 0 23 23" fill="none" xmlns="http://www.w3.org/2000/svg">
<path d="M20.4826 15.985C19.9867 17.0864 19.7477 17.5788 19.1098 18.5509C18.2168 19.9093 16.9572 21.6056 15.4011 21.6164C14.0157 21.6289 13.6581 20.7125 11.7768 20.7287C9.89724 20.7377 9.50552 21.6343 8.11833 21.62C6.56044 21.6056 5.36911 20.0782 4.47607 18.7216C1.97841 14.9176 1.71427 10.4578 3.25778 8.0859C4.35028 6.40402 6.07708 5.41574 7.69966 5.41574C9.35278 5.41574 10.3914 6.32316 11.757 6.32316C13.0831 6.32316 13.8899 5.41395 15.8018 5.41395C17.2465 5.41395 18.7738 6.20098 19.8663 7.55941C16.2941 9.51801 16.8745 14.6193 20.4826 15.985ZM14.3499 3.89559C15.0453 3.00254 15.5736 1.74293 15.3813 0.459961C14.2475 0.537227 12.9214 1.26137 12.1469 2.19934C11.4443 3.05465 10.8622 4.32324 11.0886 5.55051C12.3266 5.59004 13.6078 4.85152 14.3499 3.89559Z" fill="black"/>
</svg>
