<svg width="22" height="22" viewBox="0 0 22 22" fill="none" xmlns="http://www.w3.org/2000/svg">
<path d="M19.25 18.3333C19.25 18.8398 18.8398 19.25 18.3333 19.25H3.66667C3.16021 19.25 2.75 18.8398 2.75 18.3333V3.66667C2.75 3.16021 3.16021 2.75 3.66667 2.75H18.3333C18.8398 2.75 19.25 3.16021 19.25 3.66667V18.3333Z" fill="url(#paint0_linear_236_289)"/>
<path opacity="0.05" d="M11.4583 17.4168V12.3752H9.625V9.62518H11.4583V8.64526C11.4583 6.33434 12.6803 5.06201 14.8981 5.06201C15.8125 5.06201 16.3084 5.12618 16.5472 5.15735L16.9405 5.20822L16.9583 5.60285V7.79185H15.2923C14.7753 7.79185 14.6667 8.42343 14.6667 8.95372V9.62518H16.8314L16.406 12.3752H14.6667V17.4168H11.4583Z" fill="black"/>
<path opacity="0.07" d="M11.6875 17.1875V12.1458H9.85413V9.85418H11.6875V8.6451C11.6875 6.4506 12.7975 5.29102 14.8981 5.29102C15.8015 5.29102 16.2868 5.35427 16.5206 5.38452L16.7204 5.41064L16.7296 5.61322V7.56252H15.2927C14.5488 7.56252 14.4379 8.43381 14.4379 8.95356V9.85418H16.5646L16.2103 12.1458H14.4375V17.1875H11.6875Z" fill="black"/>
<path d="M15.2923 7.33316H16.5V5.61257C16.2745 5.58324 15.7983 5.51953 14.8982 5.51953C13.0185 5.51953 11.9167 6.47286 11.9167 8.64491V10.0832H10.0834V11.9165H11.9167V16.9582H14.2084V11.9165H16.0133L16.2965 10.0832H14.2084V8.95336C14.2084 8.09445 14.4889 7.33316 15.2923 7.33316Z" fill="white"/>
<defs>
<linearGradient id="paint0_linear_236_289" x1="2.8545" y1="2.244" x2="19.2853" y2="19.9063" gradientUnits="userSpaceOnUse">
<stop stop-color="#0D61A9"/>
<stop offset="1" stop-color="#16528C"/>
</linearGradient>
</defs>
</svg>
